<svg id="a" data-name="Layer 1" xmlns="http://www.w3.org/2000/svg" viewBox="0 0 136 72.83">
  <g>
    <g>
      <path d="M61.87,43.48h-1.5c-.14,0-.23-.04-.27-.13-.05-.09-.04-.19,.01-.3l5.05-9.25-4.79-8.42c-.08-.12-.09-.22-.03-.3,.06-.09,.15-.13,.29-.13h1.44c.31,0,.52,.13,.63,.4l3.86,7.09h.12l3.81-7.09c.15-.27,.36-.4,.63-.4h1.5c.13,0,.23,.04,.27,.13,.05,.09,.04,.19-.02,.3l-4.81,8.39,5.02,9.28c.08,.12,.09,.22,.04,.3-.05,.09-.14,.13-.27,.13h-1.53c-.27,0-.45-.13-.55-.37l-4.12-7.73h-.12l-4.09,7.73c-.13,.25-.33,.37-.58,.37Z" style="fill: #ffffff;"/>
      <path d="M77.99,49.85h-1.3c-.27,0-.4-.14-.4-.4V29.18c0-.27,.13-.4,.4-.4h1.3c.27,0,.4,.13,.4,.4v1.12h.11c.48-1.02,1.46-1.53,2.94-1.53h1.73c1.31,0,2.32,.37,3.04,1.12,.72,.75,1.08,1.8,1.08,3.14v6.17c0,1.34-.36,2.39-1.08,3.14-.72,.75-1.73,1.12-3.04,1.12h-1.73c-1.48,0-2.46-.51-2.94-1.53h-.11v7.5c0,.27-.13,.4-.4,.4Zm3.08-8.22h1.7c1.63,0,2.45-.84,2.45-2.51v-6c0-1.67-.82-2.51-2.45-2.51h-1.7c-.86,0-1.53,.23-1.99,.69-.46,.46-.69,1.12-.69,1.96v5.71c0,.85,.23,1.5,.69,1.96,.46,.46,1.12,.69,1.99,.69Z" style="fill: #ffffff;"/>
      <path d="M91.13,26.36v-2.71c0-.27,.12-.4,.37-.4h1.33c.27,0,.4,.13,.4,.4v2.71c0,.27-.13,.4-.4,.4h-1.33c-.25,0-.37-.13-.37-.4Zm0,16.72v-13.89c0-.27,.12-.4,.37-.4h1.33c.27,0,.4,.13,.4,.4v13.89c0,.27-.13,.4-.4,.4h-1.3c-.27,0-.4-.13-.4-.4Z" style="fill: #ffffff;"/>
      <path d="M99.64,43.48h-1.3c-.27,0-.4-.13-.4-.4v-13.89c0-.27,.13-.4,.4-.4h1.3c.27,0,.4,.13,.4,.4v1.15h.11c.19-.42,.56-.79,1.1-1.1,.54-.31,1.17-.46,1.9-.46h1.12c.25,0,.37,.13,.37,.4v1.07c0,.13-.03,.24-.09,.3-.06,.07-.15,.09-.29,.07h-1.56c-.86,0-1.53,.26-1.99,.78-.46,.52-.69,1.23-.69,2.13v9.54c0,.27-.14,.4-.4,.4Z" style="fill: #ffffff;"/>
      <path d="M107.97,26.36v-2.71c0-.27,.12-.4,.37-.4h1.33c.27,0,.4,.13,.4,.4v2.71c0,.27-.13,.4-.4,.4h-1.33c-.25,0-.37-.13-.37-.4Zm0,16.72v-13.89c0-.27,.12-.4,.37-.4h1.33c.27,0,.4,.13,.4,.4v13.89c0,.27-.13,.4-.4,.4h-1.3c-.27,0-.4-.13-.4-.4Z" style="fill: #ffffff;"/>
      <path d="M115.32,30.62h-1.59c-.27,0-.4-.13-.4-.37v-1.07c0-.27,.13-.4,.4-.4h1.59c.19,0,.29-.09,.29-.26v-2.48c0-.27,.13-.4,.4-.4h1.3c.25,0,.38,.14,.38,.4v2.48c0,.17,.11,.26,.32,.26h3.06c.29,0,.43,.13,.43,.4v1.07c0,.25-.14,.37-.43,.37h-3.06c-.21,0-.32,.09-.32,.26v8.3c0,1.63,.84,2.45,2.54,2.45h1.12c.29,0,.43,.14,.43,.4v1.07c0,.25-.14,.37-.43,.37h-1.38c-1.33,0-2.38-.37-3.17-1.11-.79-.74-1.18-1.77-1.18-3.1v-8.39c0-.17-.1-.26-.29-.26Z" style="fill: #ffffff;"/>
    </g>
    <path d="M21.15,7.74h-4.33c-1.07,0-1.81,.35-2.2,1.04-.38,.68-.3,1.48,.24,2.37,.36,.59,12.68,20.97,12.68,20.97,.25,.42,.7,.67,1.19,.67h.38c.49,0,.94-.26,1.19-.68l2.2-3.7c.24-.4,.26-.89,.06-1.31L24.36,9.79c-.48-1.3-1.65-2.05-3.21-2.05Z" style="fill: #ec6a06;"/>
    <path d="M29.14,38.71h-.38c-.49,0-.95,.26-1.2,.69l-13.88,23.61c-.38,.64-.18,1.46,.44,1.87,.23,.15,.5,.22,.76,.22,.43,0,.86-.2,1.13-.58l15.46-21.57c.32-.45,.35-1.04,.07-1.51l-1.2-2.04c-.25-.42-.71-.69-1.2-.69Z" style="fill: #ec6a06;"/>
    <path d="M55.79,7.74h-4.54c-.83,0-2.02,.36-2.98,2.06l-15.78,24.78c-.28,.44-.29,1.01-.02,1.46l17.05,28.38c.26,.43,.72,.67,1.19,.67,.22,0,.44-.05,.65-.16,.65-.35,.92-1.14,.61-1.81l-12.93-27.73L57.57,11.25s.03-.04,.04-.06c.7-1.02,.47-1.87,.27-2.28-.21-.44-.76-1.17-2.1-1.17Z" style="fill: #ec6a06;"/>
  </g>
  <g>
    <path d="M60.96,58.9h-.44c-.08,0-.12-.04-.12-.12v-4.26c0-.08,.04-.12,.12-.12h1.67c.34,0,.61,.09,.8,.28,.19,.19,.29,.46,.29,.8v.73c0,.34-.1,.61-.29,.8-.19,.19-.46,.29-.8,.29h-1.02c-.06,0-.08,.02-.08,.07v1.41c0,.08-.04,.12-.12,.12Zm.2-2.21h.93c.33,0,.5-.17,.5-.52v-.67c0-.35-.17-.52-.5-.52h-.93c-.05,0-.08,.02-.08,.07v1.56s.03,.07,.08,.07Z" style="fill: #ffffff;"/>
    <path d="M65.53,58.9h-.27c-.35,0-.61-.1-.8-.29s-.28-.46-.28-.8v-1.4c0-.34,.09-.61,.28-.8,.19-.19,.46-.28,.8-.28h1.57c.08,0,.13,.04,.13,.12v3.33c0,.08-.04,.12-.13,.12h-.44c-.08,0-.12-.04-.12-.12v-.25h-.03c-.11,.25-.35,.37-.71,.37Zm.73-1.19v-1.71s-.03-.07-.08-.07h-.83c-.34,0-.5,.17-.5,.52v1.34c0,.35,.17,.52,.5,.52h.34c.38,0,.57-.2,.57-.6Z" style="fill: #ffffff;"/>
    <path d="M68.52,58.9h-.44c-.08,0-.12-.04-.12-.12v-3.33c0-.08,.04-.12,.12-.12h.44c.08,0,.12,.04,.12,.12v.27h.03c.05-.12,.14-.21,.27-.28s.28-.11,.44-.11h.26c.08,0,.12,.04,.12,.12v.36c0,.09-.04,.13-.12,.11h-.42c-.39,0-.58,.21-.58,.64v2.22c0,.08-.04,.12-.12,.12Z" style="fill: #ffffff;"/>
    <path d="M70.81,55.92h-.34s-.08,0-.09-.02c-.02-.02-.02-.05-.02-.09v-.36c0-.08,.04-.12,.12-.12h.34s.07-.02,.07-.07v-.63c0-.08,.04-.12,.13-.12h.44c.08,0,.12,.04,.12,.12v.63s.03,.07,.08,.07h.65c.08,0,.13,.04,.13,.12v.36c0,.07-.04,.11-.13,.11h-.65c-.05,0-.08,.02-.08,.07v1.8c0,.34,.18,.51,.53,.51h.27c.08,0,.13,.04,.13,.12v.36c0,.08-.04,.11-.13,.11h-.38c-.35,0-.62-.09-.81-.28-.2-.19-.29-.45-.29-.79v-1.83s-.02-.07-.07-.07Z" style="fill: #ffffff;"/>
    <path d="M76.46,58.9h-.62c-.35,0-.61-.1-.8-.29s-.28-.46-.28-.8v-1.4c0-.34,.09-.61,.28-.8,.19-.19,.46-.28,.8-.28h.62c.34,0,.61,.09,.8,.28,.19,.19,.29,.46,.29,.8v1.4c0,.34-.1,.61-.29,.8-.19,.19-.46,.29-.8,.29Zm-.52-.59h.43c.34,0,.5-.17,.5-.51v-1.36c0-.34-.17-.51-.5-.51h-.43c-.18,0-.31,.04-.39,.12s-.12,.21-.12,.39v1.36c0,.18,.04,.31,.12,.39,.08,.08,.21,.12,.39,.12Z" style="fill: #ffffff;"/>
    <path d="M79.64,55.33h.59c.08,0,.13,.04,.13,.11v.36c0,.08-.04,.12-.13,.12h-.59s-.07,.02-.07,.07v2.79c0,.08-.04,.12-.13,.12h-.44c-.08,0-.12-.04-.12-.12v-2.79s-.03-.07-.08-.07h-.37c-.08,0-.12-.04-.12-.12v-.36s0-.07,.02-.09c.02-.02,.05-.02,.09-.02h.37c.05,0,.08-.02,.08-.07v-.2c0-.35,.09-.61,.27-.8s.44-.28,.78-.28h.31c.08,0,.12,.04,.12,.11v.36c0,.08-.04,.12-.12,.12h-.21c-.17,0-.29,.04-.35,.12-.07,.08-.1,.21-.1,.4v.17s.02,.07,.07,.07Z" style="fill: #ffffff;"/>
    <path d="M82.93,58.9h-.52s-.06-.01-.08-.04c-.02-.02-.02-.05,0-.09l1.15-2.21-1.11-2.04s-.02-.06,0-.09c.02-.03,.04-.04,.08-.04h.5c.09,0,.16,.04,.2,.12l.81,1.62h.03l.81-1.62c.04-.08,.1-.12,.18-.12h.52s.06,.01,.08,.04c.02,.03,.02,.06,0,.09l-1.12,2.04,1.15,2.2s.02,.07,0,.09c-.01,.03-.04,.04-.08,.04h-.52c-.07,0-.13-.04-.16-.11l-.86-1.71h-.03l-.86,1.71c-.03,.08-.09,.11-.17,.11Z" style="fill: #ffffff;"/>
    <path d="M88.94,58.9h-1.51c-.35,0-.61-.1-.8-.29s-.28-.46-.28-.8v-1.4c0-.34,.09-.61,.28-.8,.19-.19,.46-.28,.8-.28h.57c.35,0,.61,.09,.81,.28,.19,.19,.29,.46,.29,.8v.89c0,.08-.04,.13-.13,.13h-1.88c-.05,0-.08,.02-.08,.07v.3c0,.34,.17,.51,.51,.51h1.41c.08,0,.13,.04,.13,.13v.35c0,.08-.04,.11-.13,.11Zm-1.85-1.95h1.25s.07-.02,.07-.07v-.45c0-.18-.04-.31-.12-.39-.08-.08-.21-.12-.39-.12h-.38c-.18,0-.31,.04-.39,.12s-.12,.21-.12,.39v.45s.02,.07,.07,.07Z" style="fill: #ffffff;"/>
    <path d="M90,58.78v-4.68c0-.08,.04-.12,.12-.12h.44c.08,0,.12,.04,.12,.12v1.58h.03c.12-.25,.35-.38,.71-.38h.31c.35,0,.61,.09,.8,.28,.19,.19,.29,.45,.29,.79v1.43c0,.34-.1,.61-.29,.8s-.46,.29-.8,.29h-1.6c-.08,0-.12-.04-.12-.12Zm.76-.48h.87c.34,0,.5-.17,.5-.52v-1.37c0-.34-.17-.52-.5-.52h-.37c-.38,0-.57,.2-.57,.59v1.74c0,.05,.03,.08,.08,.08Z" style="fill: #ffffff;"/>
    <path d="M93.79,54.73v-.64c0-.08,.04-.11,.11-.11h.46c.07,0,.11,.04,.11,.11v.64c0,.08-.04,.12-.11,.12h-.46c-.07,0-.11-.04-.11-.12Zm0,4.05v-3.33c0-.08,.04-.12,.11-.12h.45c.08,0,.12,.04,.12,.12v3.33s0,.08-.02,.09c-.02,.02-.05,.02-.09,.02h-.45c-.08,0-.12-.04-.12-.12Z" style="fill: #ffffff;"/>
    <path d="M96.81,58.9h-.27c-.35,0-.61-.1-.8-.29s-.28-.46-.28-.8v-1.4c0-.34,.09-.61,.28-.8,.19-.19,.46-.28,.8-.28h1.57c.08,0,.13,.04,.13,.12v3.33c0,.08-.04,.12-.13,.12h-.44c-.08,0-.12-.04-.12-.12v-.25h-.03c-.11,.25-.35,.37-.71,.37Zm.73-1.19v-1.71s-.03-.07-.08-.07h-.83c-.34,0-.5,.17-.5,.52v1.34c0,.35,.17,.52,.5,.52h.34c.38,0,.57-.2,.57-.6Z" style="fill: #ffffff;"/>
  </g>
</svg>